<?xml version="1.0" encoding="UTF-8"?>
<svg id="_ëîé_1" data-name="‘ëîé_1" xmlns="http://www.w3.org/2000/svg" viewBox="0 0 500 500">
  <defs>
    <style>
      .cls-1 {
        fill: #333;
      }
    </style>
  </defs>
  <path class="cls-1" d="m99.09,154.31c.85.54,1.75,1.13,2.66,1.69,48.43,29.6,96.87,59.17,145.26,88.84,2.1,1.29,3.53,1.14,5.53-.09,47.22-28.92,94.48-57.77,141.73-86.64,7.03-4.3,7.18-4.37,3.56-11.96-8.56-17.94-22.96-26.96-42.77-26.98-69.57-.07-139.14-.03-208.72,0-3.26,0-6.53.17-9.77.5-17.66,1.79-34.39,17.23-37.48,34.65Z"/>
  <path class="cls-1" d="m97.67,182.61c6.1,3.65,12.23,7.26,18.3,10.96,40.88,24.9,81.78,49.78,122.6,74.77,7.55,4.62,14.66,4.69,22.23.06,45.81-28.03,91.68-55.94,137.54-83.89.99-.6,2.01-1.16,3.45-1.99,0,1.23,0,2.07,0,2.91,0,37.32.03,74.65,0,111.97-.03,26.49-19.35,46.05-45.87,46.08-70.77.09-141.55.01-212.32.04-25.67.01-42.98-18.66-45.43-38.68-.04-.36-.32-.69-.49-1.03,0-40.4,0-80.8,0-121.2Z"/>
  <path class="cls-1" d="m99.09,154.31c3.09-17.42,19.82-32.86,37.48-34.65,3.24-.33,6.51-.5,9.77-.5,69.57-.03,139.14-.07,208.72,0,19.81.02,34.2,9.05,42.77,26.98,3.63,7.6,3.48,7.67-3.56,11.96-47.25,28.87-94.51,57.72-141.73,86.64-1.99,1.22-3.42,1.38-5.53.09-48.39-29.66-96.83-59.24-145.26-88.84-.92-.56-1.82-1.15-2.66-1.69Z"/>
</svg>