<?xml version="1.0" encoding="UTF-8"?>
<svg id="_ëîé_1" data-name="‘ëîé_1" xmlns="http://www.w3.org/2000/svg" viewBox="0 0 500 500">
  <defs>
    <style>
      .cls-1 {
        fill: #333;
      }
    </style>
  </defs>
  <path class="cls-1" d="m283.34,324.85c-48.62-25.58-85.35-62.49-110.68-110.98.95-.81,1.69-1.5,2.49-2.11,9.54-7.43,19.15-14.77,28.6-22.31,8.7-6.94,10.93-17.75,5.98-27.71-1.1-2.22-2.25-4.43-3.39-6.63-10.2-19.89-20.32-39.81-30.62-59.64-6.54-12.6-20.59-16.65-32.16-9.18-14.61,9.43-29.11,19.05-43.51,28.81-7.98,5.4-13.48,13.13-13.7,22.71-.25,11.09.67,22.35,2.38,33.33,3.74,24,12.95,46.24,24.29,67.55,26.71,50.19,63.81,91.39,110.08,124.14,37.64,26.64,78.28,46.08,125.37,49.3,16.01,1.1,28.24-3.67,36.83-17.47,8.29-13.33,16.91-26.46,25.33-39.7,8.32-13.08,4.73-26.52-8.97-33.6-21.45-11.1-42.92-22.17-64.4-33.21-11.81-6.07-22.44-3.65-30.59,6.83-7.7,9.89-15.42,19.76-23.33,29.88Z"/>
  <path class="cls-1" d="m283.34,324.85c7.9-10.12,15.63-19.99,23.33-29.88,8.15-10.48,18.78-12.9,30.59-6.83,21.48,11.04,42.95,22.11,64.4,33.21,13.7,7.09,17.29,20.53,8.97,33.6-8.43,13.25-17.04,26.37-25.33,39.7-8.59,13.8-20.82,18.56-36.83,17.47-47.09-3.22-87.73-22.66-125.37-49.3-46.28-32.75-83.37-73.95-110.08-124.14-11.34-21.31-20.55-43.54-24.29-67.55-1.71-10.98-2.63-22.23-2.38-33.33.22-9.58,5.72-17.3,13.7-22.71,14.4-9.75,28.89-19.37,43.51-28.81,11.57-7.47,25.62-3.42,32.16,9.18,10.3,19.83,20.42,39.76,30.62,59.64,1.13,2.21,2.28,4.41,3.39,6.63,4.95,9.96,2.71,20.77-5.98,27.71-9.45,7.54-19.06,14.87-28.6,22.31-.79.62-1.53,1.3-2.49,2.11,25.34,48.49,62.07,85.4,110.68,110.98Z"/>
</svg>