<?xml version="1.0" encoding="UTF-8"?>
<svg id="_ëîé_1" data-name="‘ëîé_1" xmlns="http://www.w3.org/2000/svg" viewBox="0 0 500 500">
  <defs>
    <style>
      .cls-1 {
        fill: #333;
      }
    </style>
  </defs>
  <path class="cls-1" d="m416.14,144.7c-12.43,5.52-25.63,9.14-39.15,10.73,14.23-8.52,24.88-21.92,29.97-37.7-13.39,7.94-28.02,13.54-43.29,16.55-25.81-27.44-68.99-28.77-96.45-2.96-17.71,16.64-25.22,41.46-19.72,65.13-54.82-2.74-105.89-28.63-140.5-71.22-18.09,31.16-8.86,71.01,21.1,91.02-10.85-.32-21.46-3.25-30.94-8.53v.86c0,32.45,22.88,60.4,54.69,66.82-10.03,2.74-20.56,3.15-30.78,1.17,8.94,27.77,34.52,46.79,63.69,47.34-24.15,18.97-53.97,29.27-84.67,29.24-5.43-.01-10.84-.34-16.23-.99,31.18,20.01,67.46,30.62,104.5,30.56v.05c125.39,0,193.97-103.89,193.97-193.97,0-2.96,0-5.89-.2-8.82,13.33-9.62,24.86-21.56,34.01-35.28Z"/>
</svg>