<?xml version="1.0" encoding="UTF-8"?>
<svg id="_ëîé_1" data-name="‘ëîé_1" xmlns="http://www.w3.org/2000/svg" viewBox="0 0 500 500">
  <defs>
    <style>
      .cls-1 {
        fill: #333;
      }
    </style>
  </defs>
  <ellipse class="cls-1" cx="250.01" cy="231.62" rx="33.46" ry="33.44"/>
  <path class="cls-1" d="m328.26,172.45c-1.82-4.68-4-8.02-7.51-11.54-3.51-3.51-6.85-5.68-11.54-7.5-3.54-1.37-8.85-3.01-18.64-3.45-10.58-.48-13.76-.58-40.57-.58h-9.01v-.02c-18.71.02-22.3.15-31.56.56-9.79.45-15.1,2.08-18.64,3.46-4.68,1.82-8.03,4-11.54,7.51s-5.69,6.85-7.51,11.54c-1.37,3.54-3.01,8.84-3.46,18.62-.48,10.57-.58,13.73-.58,40.52s.1,29.96.58,40.54c.45,9.78,2.08,15.09,3.46,18.62,1.82,4.68,4,8.02,7.51,11.53s6.86,5.68,11.54,7.5c3.54,1.37,8.85,3.01,18.64,3.46,10.58.48,13.76.59,40.57.59s29.98-.1,40.57-.59c9.79-.45,15.1-2.08,18.64-3.46,4.69-1.82,8.02-3.99,11.54-7.5,3.51-3.51,5.69-6.84,7.51-11.52,1.37-3.53,3.01-8.84,3.46-18.62.48-10.57.59-13.75.59-40.52s-.1-29.95-.59-40.52c-.45-9.79-2.09-15.1-3.46-18.63Zm-78.25,110.67c-28.47,0-51.55-23.06-51.55-51.5s23.08-51.51,51.55-51.52h0c28.47,0,51.55,23.07,51.55,51.52-.01,28.44-23.08,51.5-51.55,51.5Zm53.58-93.01c-6.65,0-12.05-5.39-12.05-12.04s5.4-12.03,12.05-12.03h0c6.65,0,12.05,5.39,12.05,12.04,0,6.63-5.4,12.03-12.05,12.03Z"/>
  <path class="cls-1" d="m384.73,155.13c-.85-10.84-2.71-18.13-6.49-25.84-3.1-6.31-6.55-11.02-11.56-15.84-8.93-8.53-19.85-13.73-32.87-15.6-6.31-.91-7.56-1.18-39.83-1.24h-43.94c-56.36,0-72.84.06-76.05.32-11.57.96-18.76,2.78-26.6,6.69-6.04,3-10.81,6.48-15.51,11.36-8.57,8.89-13.76,19.84-15.64,32.84-.91,6.31-1.18,7.6-1.23,39.86-.02,10.75,0,24.9,0,43.88,0,56.33.06,72.8.33,76,.93,11.26,2.7,18.34,6.44,26.09,7.14,14.83,20.79,25.96,36.86,30.12,5.57,1.43,11.71,2.22,19.6,2.6,3.34.15,37.42.25,71.52.25s68.19-.04,71.45-.21c9.14-.43,14.44-1.14,20.31-2.66,16.18-4.17,29.57-15.14,36.86-30.18,3.67-7.56,5.52-14.91,6.36-25.58.18-2.33.26-39.42.26-76.46,0-37.05-.08-74.07-.27-76.4Zm-34.95,117.84c-.5,10.68-2.2,17.97-4.66,24.35-2.57,6.6-6,12.19-11.59,17.77-5.58,5.58-11.17,9.02-17.77,11.58-6.39,2.48-13.69,4.17-24.38,4.66-10.71.49-14.12.61-41.38.61s-30.68-.12-41.39-.61c-10.68-.49-17.98-2.18-24.37-4.66-6.6-2.56-12.2-6-17.78-11.58s-9.01-11.17-11.58-17.77c-2.48-6.38-4.17-13.67-4.66-24.35-.49-10.7-.61-14.11-.61-41.35s.13-30.66.6-41.36c.48-10.67,2.17-17.97,4.66-24.35,2.57-6.6,6-12.19,11.59-17.77,5.58-5.58,11.18-9.01,17.78-11.57,6.38-2.48,13.68-4.17,24.36-4.66,10.71-.49,14.13-.61,41.38-.61h-.02.03-.02c27.26,0,30.67.12,41.37.61,10.69.49,17.99,2.18,24.39,4.66,6.61,2.56,12.19,5.99,17.78,11.57,5.58,5.58,9.01,11.17,11.59,17.77,2.47,6.38,4.16,13.67,4.66,24.35.48,10.7.61,14.12.61,41.36.02,27.24-.11,30.65-.59,41.35Z"/>
</svg>