<?xml version="1.0" encoding="UTF-8"?>
<svg id="_ëîé_1" data-name="‘ëîé_1" xmlns="http://www.w3.org/2000/svg" viewBox="0 0 500 500">
  <defs>
    <style>
      .cls-1 {
        fill: #333;
      }
    </style>
  </defs>
  <path class="cls-1" d="m375.89,169.17l-8.99,45.55-8.05-1.44c-9.58-1.71-19-4.62-27.81-8.77-10.11-4.77-19.5-11.21-27.18-19.36v7.46h-.01v100.29c0,23.91-9.42,46.65-26.32,63.56-16.91,16.91-39.65,26.32-63.55,26.32s-46.65-9.41-63.55-26.32c-16.91-16.91-26.33-39.65-26.33-63.56s9.42-46.65,26.33-63.55c16.91-16.91,39.64-26.33,63.55-26.33h16.68v47.25h-16.68c-11.35,0-22.12,4.46-30.15,12.49-8.02,8.03-12.48,18.79-12.48,30.14s4.46,22.12,12.48,30.15c8.03,8.02,18.8,12.49,30.15,12.49s22.12-4.47,30.15-12.49c8.02-8.03,12.48-18.79,12.48-30.05V112.78h47.05l2.36,4.36c7.33,13.58,17.21,26.45,29.46,35.95,9.48,7.35,20.2,12.53,32.05,14.6l8.36,1.48Z"/>
</svg>