<svg width="21" height="16" viewBox="0 0 21 16" fill="none" xmlns="http://www.w3.org/2000/svg">
<path id="Arrow 2" d="M1 7C0.447715 7 5.90768e-10 7.44772 0 8C-5.90768e-10 8.55228 0.447715 9 1 9L1 7ZM20.3372 8.70711C20.7278 8.31658 20.7278 7.68342 20.3372 7.29289L13.9733 0.928932C13.5828 0.538408 12.9496 0.538408 12.5591 0.928932C12.1685 1.31946 12.1685 1.95262 12.5591 2.34315L18.2159 8L12.5591 13.6569C12.1685 14.0474 12.1685 14.6805 12.5591 15.0711C12.9496 15.4616 13.5828 15.4616 13.9733 15.0711L20.3372 8.70711ZM1 9L19.6301 9L19.6301 7L1 7L1 9Z" fill="black"/>
</svg>
