<?xml version="1.0" encoding="UTF-8"?>
<svg id="Layer_1" data-name="Layer 1" xmlns="http://www.w3.org/2000/svg" viewBox="0 0 1440 1024">
  <defs>
    <style>
      .cls-1 {
        fill: #666;
      }
    </style>
  </defs>
  <path class="cls-1" d="m1281.58,879.6c-14.73,28.62-41.78,24.71-69.29,24.77-22.26.05-44.47,2.15-66.74,1.88-16.9-.2-33.96.99-50.99.45s-34.75-1.58-52.15-1.58c-258.76,0-517.51,0-776.27-.02-30.39,0-44.71-14.34-44.72-44.81-.03-67.83,0-135.67.01-203.5,0-15.15.3-30.3-.09-45.44-.52-20.51-12.66-32.21-33.08-32.58-3.95-.07-7.92.11-11.85-.17-14.59-1.07-24.38-10.84-23.93-23.72.44-12.64,10-20.95,24.75-21.15,14.49-.19,28.99.3,43.46-.2,14.28-.5,24.45-10.87,24.16-23.58-.28-12.25-10.54-21.39-24.69-21.76-7.57-.19-15.15.14-22.72-.12-12.4-.43-22.42-9.86-23.05-21.34-.62-11.36,8.7-21.85,20.88-23.53,19.19-2.64,25.82-9.87,25.98-29.14.18-22.72-.13-45.44.08-68.16.21-22.6,14.45-36.78,37.13-37.35,6.91-.17,13.85.24,20.74-.26,13.28-.97,22.72-10.81,23.31-23.71.57-12.48-8.55-23.16-21.8-25.06-4.2-.6-8.57-.63-12.81-.34-36.51,2.57-48.53-14.11-46.87-46.42,1.41-27.5,15.42-42.44,43.25-42.46,45.11-.04,90.23.04,135.34.04,259.81,0,519.63,0,779.44,0,23.93,0,35.39,7.67,43.03,29.78,2.03,5.87,5.39,7.56,10.93,7.51,11.19-.09,22.4-.27,33.58.2,10.72.46,17.98,7.6,19.14,17.8,1.1,9.65-5,18.97-14.87,21.65-4.37,1.19-9.09,1.45-13.65,1.46-30.95.1-61.91-.06-92.86.05-15.52.06-24.4,8.27-24.55,22.17-.15,13.71,8.86,21.98,24.49,22.11,17.45.15,34.96-.77,52.33.41,8.1.55,17.43,3.05,23.62,7.93,20.27,15.99,15.92,45.94-7.84,56.5-7.38,3.28-10.08,7.5-9.33,14.98.26,2.61.04,5.26.04,7.9.02,116.24.04,232.48.05,348.72,0,15.11-4,20.21-16.88,21.79-15.31,1.88-24.74,11.06-24.08,23.45.95,17.79,20.48,22.88,35.22,23.84,21.46,1.4,40.08.7,55.91,18.38,12.79,14.29,17.45,35.42,11.85,53.77-.93,3.06-2.15,6.03-3.61,8.86Z"/>
</svg>