<?xml version="1.0" encoding="utf-8"?>
<!-- Generator: Adobe Illustrator 27.5.0, SVG Export Plug-In . SVG Version: 6.00 Build 0)  -->
<svg version="1.1" id="Layer_1" xmlns="http://www.w3.org/2000/svg" xmlns:xlink="http://www.w3.org/1999/xlink" x="0px" y="0px"
	 viewBox="0 0 1440 112.04" style="enable-background:new 0 0 1440 112.04;" xml:space="preserve">
<style type="text/css">
	.st0{fill:#FF006B;}
</style>
<path class="st0" d="M1440,96.67V0H934.35h-0.06H0v93.4h0.02c0.45,10.37,8.99,18.64,19.47,18.64s19.02-8.27,19.47-18.64H39
	c0.45,10.37,8.99,18.64,19.47,18.64c10.48,0,19.02-8.27,19.47-18.64h0.04c0.45,10.37,8.99,18.64,19.47,18.64s18.15-7.45,19.34-17.07
	c1.19,9.62,9.39,17.07,19.34,17.07c10.48,0,19.02-8.27,19.47-18.64h0.04c0.45,10.37,8.99,18.64,19.47,18.64
	c10.48,0,19.02-8.27,19.47-18.64h0.04c0.45,10.37,8.99,18.64,19.47,18.64c10.48,0,19.02-8.27,19.47-18.64h0.04
	c0.45,10.37,8.99,18.64,19.47,18.64s19.02-8.27,19.47-18.64h0.04c0.45,10.37,8.99,18.64,19.47,18.64c10.48,0,19.02-8.27,19.47-18.64
	h0.04c0.45,10.37,8.99,18.64,19.47,18.64c10.48,0,18.15-7.45,19.34-17.07c1.19,9.62,9.39,17.07,19.34,17.07
	c10.48,0,19.02-8.27,19.47-18.64h0.04c0.45,10.37,8.99,18.64,19.47,18.64c10.48,0,19.02-8.27,19.47-18.64h0.04
	c0.45,10.37,8.99,18.64,19.47,18.64c10.48,0,19.02-8.27,19.47-18.64h0.04c0.45,10.37,8.99,18.64,19.47,18.64
	c10.48,0,19.02-8.27,19.47-18.64h0.04c0.45,10.37,8.99,18.64,19.47,18.64s19.02-8.27,19.47-18.64h0.04
	c0.45,10.37,8.99,18.64,19.47,18.64s18.15-7.45,19.34-17.07c1.19,9.62,9.39,17.07,19.34,17.07c10.48,0,19.02-8.27,19.47-18.64h0.04
	c0.45,10.37,8.99,18.64,19.47,18.64s19.02-8.27,19.47-18.64h0.04c0.45,10.37,8.99,18.64,19.47,18.64s19.02-8.27,19.47-18.64h0.04
	c0.45,10.37,8.99,18.64,19.47,18.64s19.02-8.27,19.47-18.64h0.04c0.45,10.37,8.99,18.64,19.47,18.64s19.02-8.27,19.47-18.64h0.04
	c0.45,10.37,8.99,18.64,19.47,18.64s18.15-7.45,19.34-17.07c1.19,9.62,9.39,17.07,19.34,17.07c10.48,0,19.02-8.27,19.47-18.64h0.04
	c0.45,10.37,8.99,18.64,19.47,18.64s19.02-8.27,19.47-18.64h0.04c0.45,10.37,8.99,18.64,19.47,18.64s19.02-8.27,19.47-18.64h0.04
	c0.45,10.37,8.99,18.64,19.47,18.64s19.02-8.27,19.47-18.64h0.04c0.45,10.37,8.99,18.64,19.47,18.64s19.02-8.27,19.47-18.64h0.04
	c0.45,10.37,8.99,18.64,19.47,18.64c10.48,0,18.15-7.45,19.34-17.07c1.19,9.62,9.39,17.07,19.34,17.07
	c10.48,0,19.02-8.27,19.47-18.64h0.04c0.45,10.37,8.99,18.64,19.47,18.64s19.02-8.27,19.47-18.64h0.04
	c0.45,10.37,8.99,18.64,19.47,18.64s19.02-8.27,19.47-18.64h0.04c0.45,10.37,8.99,18.64,19.47,18.64s19.02-8.27,19.47-18.64h0.04
	c0.45,10.37,8.99,18.64,19.47,18.64s19.02-8.27,19.47-18.64h0.04c0.45,10.37,8.99,18.64,19.47,18.64s18.15-7.45,19.34-17.07
	c1.19,9.62,9.39,17.07,19.34,17.07c10.48,0,19.02-8.27,19.47-18.64h0.04c0.45,10.37,8.99,18.64,19.47,18.64s19.02-8.27,19.47-18.64
	h0.04c0.45,10.37,8.99,18.64,19.47,18.64s19.02-8.27,19.47-18.64h0.04c0.45,10.37,8.99,18.64,19.47,18.64
	C1430.32,112.04,1438.1,105.45,1440,96.67z"/>
</svg>
