<?xml version="1.0" encoding="utf-8"?>
<!-- Generator: Adobe Illustrator 27.5.0, SVG Export Plug-In . SVG Version: 6.00 Build 0)  -->
<svg version="1.1" id="Layer_1" xmlns="http://www.w3.org/2000/svg" xmlns:xlink="http://www.w3.org/1999/xlink" x="0px" y="0px"
	 viewBox="0 0 1080 1080" style="enable-background:new 0 0 1080 1080;" xml:space="preserve">
<style type="text/css">
	.st0{fill:#303030;}
	.st1{fill:#F6F6F6;}
	.st2{fill:#B3DC3D;}
	.st3{fill:#A582FF;}
	.st4{fill:#F97D7D;}
	.st5{fill:#F9E255;}
	.st6{fill:#66C5FF;}
</style>
<g>
	<path class="st0" d="M321.52,456.8l102.54-59.81h-98.85V286.18h202.21v100.15l-102.95,59.81h102.95v61.93h-205.9V456.8z"/>
</g>
<g>
	<path class="st0" d="M307.14,647.79v-0.82c0-64.81,46.35-116.08,111.97-116.08c76.7,0,111.97,56.19,111.97,121.41
		c0,4.92,0,10.66-0.41,16H382.2c6.15,24.2,23.79,36.5,47.99,36.5c18.46,0,33.22-6.97,49.22-22.56l43.07,35.68
		c-21.33,27.07-52.09,45.12-96.39,45.12C356.36,763.05,307.14,716.7,307.14,647.79z M458.08,628.52
		c-2.87-24.61-17.23-40.2-38.56-40.2c-20.51,0-34.45,16-38.55,40.2H458.08z"/>
	<path class="st0" d="M564.31,534.44h77.93l0,0c20.42,0,36.04-0.27,67.62-0.27c47.17,0,74.3,26.52,74.3,76.97v151.6h-77.93V598.29
		c0-24.2-12.71-37.33-31.17-37.33c-18.87,0-32.81,13.13-32.81,37.33v164.45h-77.93V534.44z"/>
</g>
<path class="st0" d="M684.42,451.97h-57.73c-31.05,0-56.22-25.17-56.22-56.22v0c0-31.05,25.17-56.22,56.22-56.22h57.73
	c31.05,0,56.22,25.17,56.22,56.22v0C740.65,426.8,715.48,451.97,684.42,451.97z"/>
</svg>
